# xmcd
#
# Track frame offsets: 
#        150
#        25035
#        33231
#        56288
#        96223
#        118544
#        142310
#        151569
#        155904
#        159227
#        188851
#        200138
#
# Disc length: 2975 seconds
#
# Revision: 0
# Processed by: cddbd v1.5.2PL0 Copyright (c) Steve Scherf et al.
# Submitted via: ExactAudioCopy v0.99pb4
#
DISCID=990b9d0c
DTITLE=Giant Sand - Provisional Supplement
DYEAR=2008
DGENRE=Alt. Rock
TTITLE0=Ballad of the Tucson 2 (inst.)
TTITLE1=Dear Diary
TTITLE2=Saturation
TTITLE3=The New Romance of Falling
TTITLE4=Love Knows (No Borders)
TTITLE5=Dead Horse Blues
TTITLE6=World's End Park Bench
TTITLE7=Harping Stomp
TTITLE8=Shine on the Piano
TTITLE9=Ok
TTITLE10=Greyer on the Way
TTITLE11=Ballad of the Tucson 2
EXTD=
EXTT0=
EXTT1=
EXTT2=
EXTT3=
EXTT4=
EXTT5=
EXTT6=
EXTT7=
EXTT8=
EXTT9=
EXTT10=
EXTT11=
PLAYORDER=
